<svg viewBox="0 0 56 56" fill="none" xmlns="http://www.w3.org/2000/svg" width="48" height="48" aria-hidden="true" focusable="false">
  <defs>
    <linearGradient id="ng" x1="100%" y1="0%" x2="0%" y2="100%">
      <stop offset="0%" stop-color="#FFFFFF"/>
      <stop offset="40%" stop-color="#E8D080"/>
      <stop offset="100%" stop-color="#A87820"/>
    </linearGradient>
    <clipPath id="hc2">
      <polygon points="28,3 51,15.5 51,40.5 28,53 5,40.5 5,15.5"/>
    </clipPath>
  </defs>
  <polygon points="28,3 51,15.5 51,40.5 28,53 5,40.5 5,15.5" fill="#0d0d0b" stroke="url(#ng)" stroke-width="1.4"/>
  <g clip-path="url(#hc2)">
    <g transform="translate(-7.5462,47.5305) scale(0.006632,-0.006632)" fill="none" stroke="url(#ng)" stroke-width="200" stroke-linejoin="round" stroke-linecap="round">
<path d="M6393 5592 c-132 -126 -378 -359 -465 -442 l-69 -65 46 -239 c25
-131 45 -240 43 -241 -159 -134 -624 -541 -627 -547 -2 -6 9 -8 25 -4 16 3
101 15 189 26 88 11 277 36 420 55 143 19 287 37 320 41 86 10 99 17 144 77
105 143 182 310 228 497 36 145 38 378 4 549 -30 152 -119 392 -145 391 -6 -1
-57 -45 -113 -98z"/>
<path d="M5649 4893 c-74 -71 -229 -216 -344 -323 -116 -107 -253 -235 -305
-285 -53 -49 -146 -137 -208 -194 -61 -58 -112 -108 -112 -112 0 -4 24 -15 53
-25 28 -9 73 -27 99 -40 l46 -23 34 29 c49 44 135 87 204 103 59 13 70 21 405
312 189 164 346 299 347 301 2 1 -5 42 -16 91 -11 48 -28 134 -38 191 -9 56
-20 102 -23 102 -4 0 -67 -57 -142 -127z"/>
<path d="M8110 4345 c-219 -29 -721 -96 -802 -107 l-86 -12 -22 -70 c-12 -39
-32 -102 -45 -141 -12 -38 -41 -131 -64 -205 -23 -74 -50 -160 -60 -190 l-18
-55 -688 -5 -688 -5 -13 -57 c-26 -113 -89 -204 -187 -267 l-60 -40 39 -10
c373 -99 901 -171 1247 -171 908 1 1458 387 1556 1094 16 110 15 256 -1 255
-7 -1 -56 -7 -108 -14z"/>
<path d="M7035 4204 c-49 -7 -261 -36 -470 -63 -936 -124 -1150 -153 -1153
-155 -2 -2 20 -20 47 -40 81 -60 142 -153 165 -253 l13 -58 660 -3 661 -2 45
142 c118 373 136 433 129 439 -4 3 -47 0 -97 -7z"/>
<path d="M5105 3946 c-100 -32 -181 -99 -228 -191 -28 -55 -31 -69 -32 -155 0
-84 3 -102 29 -157 35 -76 104 -144 184 -181 47 -22 71 -26 142 -27 105 0 172
28 254 105 70 66 98 129 104 236 5 96 -11 157 -62 228 -87 123 -257 185 -391
142z m160 -117 c99 -28 175 -125 175 -224 0 -80 -18 -125 -69 -177 -62 -62
-139 -86 -218 -68 -179 40 -253 253 -135 390 65 77 153 105 247 79z"/>
<path d="M5145 3758 c-124 -45 -154 -208 -53 -293 111 -94 278 -15 278 133 0
55 -35 119 -81 146 -36 21 -106 28 -144 14z"/>
<path d="M4295 3944 c-66 -14 -105 -28 -105 -37 0 -6 34 -86 76 -177 l75 -166
107 0 c125 0 180 -15 273 -75 33 -22 63 -38 65 -36 3 2 -1 28 -7 58 -17 77 -6
187 25 255 14 31 26 60 26 64 0 19 -195 85 -309 105 -79 14 -181 18 -226 9z"/>
<path d="M4055 3841 c-106 -81 -177 -204 -244 -426 -21 -71 -58 -182 -80 -246
-23 -64 -41 -120 -41 -125 0 -5 17 -20 38 -34 20 -14 74 -51 119 -82 45 -32
86 -58 91 -58 11 0 17 14 66 152 33 92 123 288 163 353 10 17 39 58 65 92 l48
62 -79 173 c-43 95 -83 174 -87 175 -5 1 -32 -15 -59 -36z"/>
<path d="M3312 3617 c-138 -150 -192 -220 -223 -289 -21 -48 -23 -67 -24 -208
0 -110 5 -178 17 -235 26 -120 48 -189 58 -179 5 5 24 52 43 104 l34 95 -26
55 c-33 72 -40 169 -16 242 47 144 145 288 195 288 21 0 33 16 90 123 l35 66
-29 30 c-17 17 -32 31 -35 30 -3 0 -57 -55 -119 -122z"/>
<path d="M3501 3540 l-40 -70 21 -48 c35 -76 31 -192 -12 -306 -35 -94 -73
-146 -145 -198 -36 -26 -44 -41 -78 -140 -21 -61 -36 -112 -34 -115 6 -5 154
73 197 105 61 44 131 116 152 156 21 42 63 154 134 360 l44 128 -91 99 c-51
54 -95 99 -100 99 -4 0 -25 -32 -48 -70z"/>
<path d="M4385 3491 c-45 -6 -53 -11 -97 -66 -60 -73 -182 -320 -237 -476 -23
-64 -41 -120 -41 -125 0 -7 216 -161 241 -172 4 -2 15 13 24 32 21 45 92 110
148 137 l44 21 11 129 c14 153 42 296 83 416 32 95 30 102 -26 103 -16 0 -46
2 -65 4 -19 2 -57 1 -85 -3z"/>
<path d="M4627 3363 c-35 -111 -64 -252 -76 -372 -16 -149 -19 -137 43 -144
29 -3 76 -17 103 -31 62 -31 139 -115 155 -169 12 -38 17 -43 106 -84 52 -24
100 -42 106 -40 7 3 26 111 49 276 l37 271 -41 37 c-101 91 -398 312 -443 329
-11 4 -21 -15 -39 -73z"/>
<path d="M3354 3398 c-53 -60 -124 -232 -124 -300 0 -49 25 -128 41 -128 5 0
28 17 51 38 44 40 78 105 103 200 19 76 19 107 -1 165 -18 53 -39 60 -70 25z"/>
<path d="M5170 3155 c0 -2 12 -15 27 -29 l27 -25 -44 -318 c-24 -174 -46 -330
-49 -345 l-6 -27 -120 53 -120 54 -16 -52 c-19 -61 -22 -58 105 -125 l83 -44
43 41 c54 52 118 82 186 89 l53 6 10 51 c6 28 15 83 21 121 6 39 26 164 46
279 19 115 33 210 32 212 -6 5 -247 64 -262 64 -9 0 -16 -2 -16 -5z"/>
<path d="M5486 2884 c-15 -91 -26 -167 -24 -169 5 -6 331 85 341 95 8 7 -268
240 -284 240 -3 0 -18 -75 -33 -166z"/>
<path d="M3680 2785 l0 -166 35 -55 35 -54 0 -295 c0 -162 3 -295 8 -295 4 0
19 19 33 43 22 36 30 75 57 282 18 132 32 245 32 251 0 7 -25 44 -55 82 -30
39 -55 74 -55 79 0 4 30 38 67 75 41 41 63 71 58 76 -19 17 -204 142 -209 142
-3 0 -6 -74 -6 -165z"/>
<path d="M5985 2788 c-132 -38 -242 -71 -243 -73 -2 -2 26 -51 62 -109 101
-161 163 -314 201 -497 l18 -86 136 -43 c157 -48 412 -148 567 -220 59 -28
113 -50 121 -50 10 0 12 9 9 33 -3 17 -11 61 -16 97 -56 338 -210 659 -420
870 -80 81 -168 151 -187 149 -4 -1 -116 -32 -248 -71z"/>
<path d="M4460 2760 c-51 -24 -92 -60 -120 -106 -11 -17 -53 -176 -95 -355
-42 -178 -78 -331 -81 -340 -4 -14 6 -16 73 -16 52 0 91 -5 116 -16 l39 -17
113 107 c70 66 124 125 142 157 15 28 40 74 56 101 77 138 102 199 101 255 0
95 -57 185 -142 226 -57 27 -147 29 -202 4z"/>
<path d="M5540 2660 l-95 -27 -12 -69 c-26 -159 -28 -141 19 -162 94 -41 148
-111 177 -225 l19 -71 108 -23 c60 -12 127 -25 148 -29 l39 -7 -7 52 c-9 70
-58 215 -106 319 -52 110 -159 272 -179 271 -9 -1 -59 -14 -111 -29z"/>
<path d="M3298 2624 l-87 -45 33 -47 c41 -56 76 -141 76 -182 0 -38 8 -38 47
1 55 53 76 110 71 187 -5 63 -29 133 -46 131 -4 0 -46 -20 -94 -45z"/>
<path d="M5232 2345 c-88 -38 -154 -129 -156 -214 -1 -38 37 -373 50 -447 3
-15 14 -23 34 -28 19 -3 50 -26 79 -55 l48 -49 61 61 c58 59 64 70 141 263 50
123 81 214 81 237 0 98 -79 209 -168 235 -52 16 -129 14 -170 -3z"/>
<path d="M4750 2217 c-60 -114 -72 -129 -183 -237 l-119 -115 31 -59 c39 -72
43 -162 11 -228 -11 -23 -20 -45 -20 -49 0 -3 22 -34 48 -67 l49 -61 6 -197
c4 -108 7 -267 8 -353 0 -86 4 -176 7 -201 l7 -45 17 35 c9 19 78 182 153 362
l136 327 -17 33 c-21 41 -22 130 -2 179 21 48 73 95 128 116 25 9 46 17 48 18
4 3 -25 228 -44 347 -13 79 -13 107 -4 154 7 31 8 60 3 64 -12 11 -182 100
-191 100 -4 0 -36 -55 -72 -123z"/>
<path d="M5619 2016 c-5 -11 -38 -93 -74 -181 l-64 -160 42 -39 c112 -102 359
-306 367 -301 4 3 15 35 24 72 34 144 46 248 46 403 l0 158 -92 22 c-51 12
-126 28 -166 35 -71 12 -74 12 -83 -9z"/>
<path d="M6030 1812 c0 -159 -13 -264 -50 -417 l-30 -120 33 -30 c18 -16 57
-51 87 -77 30 -25 145 -123 255 -217 110 -94 206 -171 213 -171 26 0 112 226
153 400 11 46 23 130 28 187 9 121 -3 312 -21 329 -37 34 -595 244 -650 244
-16 0 -18 -12 -18 -128z"/>
<path d="M4198 1870 c-69 -21 -119 -73 -139 -145 -32 -114 65 -235 187 -235
104 0 183 72 192 174 6 71 -11 117 -58 160 -54 49 -119 65 -182 46z"/>
<path d="M5372 1537 c-49 -49 -72 -80 -72 -96 0 -39 -21 -97 -46 -126 -13 -16
-24 -32 -24 -36 0 -4 13 -47 29 -96 64 -192 86 -476 57 -732 -9 -79 -16 -154
-16 -168 0 -23 1 -23 18 -6 91 90 297 405 404 618 62 123 156 352 147 358 -11
8 -196 162 -289 241 -58 49 -112 95 -121 103 -13 11 -25 2 -87 -60z"/>
<path d="M4998 1575 c-71 -48 -86 -150 -31 -215 69 -83 180 -78 241 11 32 47
28 136 -9 175 -56 60 -138 72 -201 29z"/>
<path d="M4373 1449 c-17 -11 -54 -22 -82 -26 -58 -7 -59 -7 -76 -72 -13 -52
-30 6 164 -573 l63 -188 39 0 c30 0 39 4 39 18 0 9 -5 185 -10 391 l-11 374
-37 48 c-20 26 -41 48 -47 48 -5 0 -24 -9 -42 -20z"/>
<path d="M4947 1263 c-3 -4 -37 -87 -77 -183 -40 -96 -101 -243 -136 -327 -35
-83 -64 -154 -64 -158 0 -3 15 -5 32 -3 29 3 49 23 190 207 157 201 158 204
189 305 18 55 34 107 36 114 4 8 -6 12 -28 12 -30 1 -65 11 -120 34 -10 4 -19
4 -22 -1z"/>
<path d="M5894 1118 c-104 -277 -345 -681 -531 -891 -46 -52 -43 -60 20 -52
88 11 297 65 397 102 280 104 500 278 601 475 11 22 19 43 17 48 -2 4 -37 36
-79 71 -42 35 -115 98 -164 139 -130 111 -217 180 -225 180 -5 0 -21 -33 -36
-72z"/>
    </g>
  </g>
  <polygon points="28,3 51,15.5 51,40.5 28,53 5,40.5 5,15.5" fill="none" stroke="url(#ng)" stroke-width="1.4"/>
</svg>